<?xml version="1.0" standalone="no"?>
<!DOCTYPE svg PUBLIC "-//W3C//DTD SVG 20010904//EN"
 "http://www.w3.org/TR/2001/REC-SVG-20010904/DTD/svg10.dtd">
<svg version="1.0" xmlns="http://www.w3.org/2000/svg"
 width="700.000000pt" height="700.000000pt" viewBox="0 0 700.000000 700.000000"
 preserveAspectRatio="xMidYMid meet">
<metadata>
Created by potrace 1.11, written by Peter Selinger 2001-2013
</metadata>
<g transform="translate(0.000000,700.000000) scale(0.100000,-0.100000)"
fill="#000000" stroke="none">
<path d="M4688 6485 c-2 -1 -39 -5 -83 -8 -179 -12 -382 -61 -551 -133 l-82
-35 -63 35 c-116 63 -276 92 -404 73 -69 -11 -109 -23 -183 -59 -120 -56 -224
-160 -280 -278 -51 -108 -62 -161 -58 -285 5 -130 39 -230 114 -329 24 -33 28
-44 20 -62 -10 -21 -12 -21 -43 -8 -78 32 -181 22 -305 -30 -402 -169 -951
-543 -1263 -861 -53 -54 -150 -195 -162 -235 -4 -14 -11 -29 -15 -35 -14 -18
-51 -149 -58 -205 -11 -99 -7 -255 14 -421 l6 -55 -52 -50 c-275 -257 -483
-531 -616 -809 -52 -111 -96 -236 -109 -310 -17 -104 0 -238 36 -281 7 -9 3
-35 -15 -92 -71 -224 -73 -470 -6 -690 85 -279 263 -501 535 -669 34 -22 154
-75 215 -96 245 -86 563 -80 799 13 39 15 51 16 62 6 24 -22 100 -38 176 -37
245 2 623 183 972 466 92 74 113 94 217 195 75 74 95 89 115 84 82 -17 361
-24 459 -12 91 12 236 64 330 120 127 75 346 302 542 563 49 66 96 128 104
138 74 91 252 391 332 557 71 147 91 211 88 274 -3 69 11 75 87 38 92 -45 178
-65 282 -65 486 1 780 509 530 915 -25 40 -34 63 -27 71 22 28 107 298 126
403 31 170 40 459 17 604 -19 127 -22 143 -37 205 -64 257 -187 509 -356 726
-7 9 -32 38 -55 64 -24 26 -43 50 -43 54 1 11 103 87 166 123 34 20 90 46 125
58 35 13 74 29 86 37 53 35 44 118 -17 143 -27 11 -39 11 -88 -4 -114 -36
-271 -121 -342 -188 -59 -54 -51 -55 -147 16 -48 36 -92 69 -98 74 -18 14
-149 87 -205 114 -127 61 -335 129 -443 144 -23 3 -53 8 -67 10 -69 10 -277
24 -282 19z"/>
</g>
</svg>
