<?xml version="1.0" encoding="UTF-8"?>
<svg width="600px" height="600px" viewBox="0 0 600 600" version="1.1" xmlns="http://www.w3.org/2000/svg" xmlns:xlink="http://www.w3.org/1999/xlink">
    <!-- Generator: Sketch 50.2 (55047) - http://www.bohemiancoding.com/sketch -->
    <title>knallis-icon</title>
    <desc>Created with Sketch.</desc>
    <defs></defs>
    <g id="knallis-icon" stroke="none" stroke-width="1" fill="none" fill-rule="evenodd">
        <g id="Baby" transform="translate(41.000000, 43.000000)">
            <g id="Head" transform="translate(188.319439, 0.462421)">
                <path d="M266.745991,61.9418544 C264.805269,61.9418544 262.863535,61.2285864 261.382963,59.8020504 C258.420807,56.9470296 258.420807,52.3205316 261.382963,49.4664852 L274.75261,36.5847871 C284.766698,26.9361808 297.249418,19.8239634 310.849646,16.0179185 C314.873687,14.8895519 319.080777,17.1219249 320.248851,20.9971528 C321.416926,24.8743296 319.103026,28.9278745 315.079996,30.0533179 C303.927162,33.1743526 293.691595,39.0052211 285.478667,46.9193779 L272.10902,59.8020504 C270.628448,61.227612 268.686714,61.9418544 266.745991,61.9418544 Z" id="Hair" fill="#495059" fill-rule="nonzero"></path>
                <g id="Ears" transform="translate(25.105454, 5.376581)" fill-rule="nonzero">
                    <ellipse id="Oval" fill="#F5D7B7" cx="54.1443355" cy="52.1631742" rx="53.282184" ry="51.6898115"></ellipse>
                    <ellipse id="Oval" fill="#000000" opacity="0.1" cx="54.1443355" cy="52.1631742" rx="53.282184" ry="51.6898115"></ellipse>
                    <ellipse id="Oval" fill="#F5D7B7" cx="246.657123" cy="251.382883" rx="53.282184" ry="51.6898115"></ellipse>
                    <ellipse id="Oval" fill="#000000" opacity="0.1" cx="246.657123" cy="251.382883" rx="53.282184" ry="51.6898115"></ellipse>
                </g>
                <ellipse id="Oval" fill="#F5D7B7" fill-rule="nonzero" cx="176.281419" cy="158.35844" rx="152.287554" ry="157.653061"></ellipse>
                <g id="Face" transform="translate(139.599016, 167.700844) rotate(3.000000) translate(-139.599016, -167.700844) translate(8.431634, 11.215583)" fill-rule="nonzero">
                    <path d="M174.863661,172.834467 C166.833345,172.834467 159.105345,169.774966 153.393863,164.275795 C147.189357,158.300795 143.976581,150.032212 144.577961,141.588324 C144.885694,137.275596 148.771365,134.015746 153.242163,134.31627 C157.719462,134.611576 161.100192,138.347256 160.793542,142.659984 C160.513982,146.588708 162.006054,150.432911 164.886175,153.206496 C167.768463,155.982169 171.758157,157.411745 175.838871,157.148786 C180.314003,156.868088 184.196424,160.108112 184.504157,164.419796 C184.81189,168.732524 181.431161,172.468204 176.953861,172.764554 C176.254961,172.81151 175.558227,172.834467 174.863661,172.834467 Z" id="Shape" fill="#495059"></path>
                    <ellipse id="Oval" fill="#F28B74" transform="translate(95.040773, 97.511338) rotate(-45.000000) translate(-95.040773, -97.511338) " cx="95.0407725" cy="97.5113379" rx="26.1223176" ry="32.1145125"></ellipse>
                    <ellipse id="Oval" fill="#F28B74" transform="translate(221.761803, 221.298186) rotate(135.000000) translate(-221.761803, -221.298186) " cx="221.761803" cy="221.298186" rx="26.1223176" ry="32.1145125"></ellipse>
                    <path d="M140.280978,109.773243 C138.142535,109.773243 136.002977,109.001987 134.371565,107.459475 C131.107625,104.372345 131.107625,99.3697184 134.371565,96.2836416 C135.862569,94.8738871 136.683847,92.9994827 136.683847,91.0049646 C136.683847,89.0093929 135.862569,87.1349885 134.371565,85.725234 C132.879446,84.3133723 130.897012,83.537902 128.787542,83.537902 C126.678072,83.537902 124.695638,84.3133723 123.203519,85.7241804 C119.939579,88.8113108 114.648631,88.8102572 111.383577,85.725234 C108.119637,82.6391572 108.119637,77.6354772 111.383577,74.5494004 C116.032658,70.1526101 122.213974,67.7324263 128.787542,67.7324263 C135.362224,67.7324263 141.54354,70.1526101 146.191507,74.5494004 C150.839473,78.9440833 153.399142,84.7885586 153.399142,91.003911 C153.399142,97.2182097 150.839473,103.062685 146.190392,107.458422 C144.55898,109.001987 142.420536,109.773243 140.280978,109.773243 Z" id="Shape" fill="#495059"></path>
                    <path d="M241.435485,207.868481 C239.297042,207.868481 237.157484,207.097017 235.526071,205.55409 C232.262131,202.466127 232.262131,197.462153 235.526071,194.375244 C237.017075,192.96511 237.838354,191.089147 237.838354,189.094091 C237.838354,187.099035 237.017075,185.223072 235.526071,183.812938 C232.445999,180.898871 227.436983,180.898871 224.358026,183.812938 C221.094086,186.898792 215.802023,186.898792 212.538084,183.812938 C209.274144,180.724975 209.274144,175.721001 212.538084,172.634092 C222.133777,163.558855 237.748091,163.558855 247.344899,172.634092 C251.992865,177.031013 254.553648,182.877064 254.553648,189.094091 C254.553648,195.311118 251.993979,201.157169 247.344899,205.55409 C245.713486,207.095963 243.573928,207.868481 241.435485,207.868481 Z" id="Shape" fill="#495059"></path>
                </g>
            </g>
            <g id="Wrapping" transform="translate(0.000000, 92.256236)">
                <ellipse id="Oval" fill="#9BB872" fill-rule="nonzero" cx="101.35198" cy="322.709698" rx="101.35198" ry="99.7309305"></ellipse>
                <path d="M172.994778,393.301002 C212.607022,354.337548 212.607022,291.164813 172.994778,252.201359 C133.382534,213.237904 69.1578965,213.237904 29.5456527,252.201359 C13.8754186,267.613945 4.4304705,286.819099 1.15830835,306.811766 C9.41493965,312.587513 20.9528196,318.1855 36.5877172,324.134043 C49.7944908,329.15803 65.931167,334.374674 84.1920732,339.549608 C89.4531768,357.511428 94.7566843,373.38381 99.8643265,386.374276 C105.91192,401.753098 111.60312,413.102998 117.474031,421.224398 C137.800609,418.003843 157.325553,408.713588 172.994778,393.301002 Z" id="Shape" fill="#000000" fill-rule="nonzero" opacity="0.1"></path>
                <path d="M130.766544,134.19934 C192.750386,134.925467 332.836741,149.34824 413.4867,190.491522 C426.072303,196.912072 431.763624,211.457347 426.774873,224.447623 C414.125584,257.384181 380.743915,306.049554 350.188699,335.326823 C334.741261,350.128961 313.536794,357.842709 291.937069,356.642375 C206.699682,351.906244 18.6323585,309.597206 4.93073083,282.17823 C-8.98621675,254.327529 34.7338432,182.666138 86.9939173,147.163929 C99.8140472,138.454349 115.15433,134.016573 130.766544,134.19934 Z" id="Shape" fill="#CCF296" fill-rule="nonzero"></path>
                <path d="M130.766544,134.19934 C192.750386,134.925467 332.836741,149.34824 413.4867,190.491522 C426.072303,196.912072 431.763624,211.457347 426.774873,224.447623 C414.125584,257.384181 380.743915,306.049554 350.188699,335.326823 C334.741261,350.128961 313.536794,357.842709 291.937069,356.642375 C206.699682,351.906244 18.6323585,309.597206 4.93073083,282.17823 C-8.98621675,254.327529 34.7338432,182.666138 86.9939173,147.163929 C99.8140472,138.454349 115.15433,134.016573 130.766544,134.19934 Z" id="Shape" fill="#000000" fill-rule="nonzero" opacity="0.1"></path>
                <path d="M87.478779,147.176705 C74.0838766,156.283184 61.2540875,167.770598 49.8072589,180.284344 C55.0954653,218.394121 64.1989442,264.23699 75.2808249,307.32814 C76.037005,310.269701 76.7982399,313.163801 77.5625075,316.031205 C143.174277,335.684788 237.295454,353.593209 291.352225,356.764162 C293.671312,353.850286 295.899415,350.903782 298.015305,347.927614 C309.40451,331.900803 315.296245,312.938364 315.052609,293.091973 C314.730121,266.717789 311.164549,212.308303 300.682154,153.795464 C235.956975,140.188149 169.071426,134.642194 131.255342,134.19923 C115.640424,134.018286 100.29947,138.459796 87.478779,147.176705 Z" id="Shape" fill="#000000" fill-rule="nonzero" opacity="0.1"></path>
                <path d="M295.363067,292.714572 C294.619628,231.875777 279.831889,94.3772816 237.650367,15.2171942 C231.067797,2.86408895 216.155475,-2.72209438 202.837394,2.17449794 C169.069691,14.5901128 119.176261,47.3551121 89.160188,77.3458718 C73.9845231,92.5079442 66.0761209,113.320694 67.3067444,134.521401 C72.16239,218.18417 115.539085,402.777267 143.649971,416.22578 C172.203476,429.886627 245.674235,386.974222 282.072332,335.679565 C291.000684,323.095273 295.550446,308.038376 295.363067,292.714572 Z" id="Shape" fill="#CFF599" fill-rule="nonzero"></path>
                <g id="Fabric" opacity="0.1" transform="translate(104.247751, 68.517448)" fill="#000000" fill-rule="nonzero">
                    <path d="M11.4639225,164.624168 C7.91457615,164.625156 4.74124564,162.191129 4.01860602,158.670923 C3.37096687,155.520018 0.346623773,136.235413 0.346623773,132.497972 C0.346623773,128.407029 3.75002327,125.09221 7.9480223,125.09221 C12.1328456,125.09221 15.5271234,128.386293 15.5494208,132.458475 C15.6315159,134.904351 18.1612614,152.044247 18.9254553,155.764902 C19.7494469,159.774875 17.0808493,163.677218 12.9639318,164.480003 C12.4602125,164.576771 11.9575066,164.624168 11.4639225,164.624168 Z M15.5494208,132.497972 L15.559556,132.497972 L15.5494208,132.497972 Z" id="Shape"></path>
                    <path d="M94.1965306,30.0515954 C93.3958499,30.0515954 92.5819935,29.9281661 91.7802994,29.6674832 C87.7971665,28.3739434 85.6525586,24.1595711 86.979256,20.2789517 C87.5356784,18.6526463 89.0448094,15.5590126 92.4401008,8.78718367 C93.3786201,6.91500699 94.2654499,5.14552355 94.5877492,4.45234421 C96.318841,0.725764692 100.82191,-0.928188858 104.646933,0.759337481 C108.470943,2.44686382 110.168589,6.83403733 108.437497,10.5606169 C108.022968,11.4522706 107.174652,13.1447341 106.100321,15.2884554 C104.613487,18.2537226 101.845565,23.7744714 101.388467,25.0028405 C100.327312,28.1023988 97.3729016,30.0515954 94.1965306,30.0515954 Z" id="Shape"></path>
                    <path d="M129.561277,174.339541 C128.264985,174.339541 126.952477,174.01665 125.751456,173.337294 C122.034879,171.234058 111.651369,165.450651 108.286483,163.955675 C104.466527,162.259262 102.781043,157.868138 104.52227,154.145509 C106.263497,150.422879 110.77062,148.779787 114.59159,150.478175 C119.243645,152.543889 131.95217,159.715629 133.386301,160.527301 C137.016729,162.581165 138.251196,167.113492 136.143075,170.650484 C134.731242,173.018353 132.181226,174.339541 129.561277,174.339541 Z" id="Shape"></path>
                    <path d="M77.4775079,298.526273 C73.2795089,298.526273 69.8761094,295.211454 69.8761094,291.120511 C69.8761094,287.039442 68.7825215,271.652243 68.2565047,264.257343 C68.0882604,261.883549 67.9605569,260.090367 67.911908,259.307331 C67.6615686,255.224288 70.8551695,251.715931 75.0460739,251.473022 C79.2471135,251.203453 82.8370006,254.340534 83.0883535,258.42259 C83.1349754,259.183902 83.2586248,260.925737 83.4228151,263.23436 C84.2245092,274.503955 85.0789064,286.88244 85.0789064,291.120511 C85.0789064,295.211454 81.6755069,298.526273 77.4775079,298.526273 Z" id="Shape"></path>
                    <path d="M227.610196,169.483336 C224.47538,169.483336 221.54124,167.579561 220.440557,164.535299 C219.045954,160.678378 221.125697,156.449194 225.084505,155.090484 C227.997361,154.0912 234.832539,150.099988 239.355877,147.459587 C245.972135,143.596741 248.168432,142.354548 250.340405,141.930938 C254.455295,141.132103 258.462753,143.729057 259.285731,147.740018 C260.058033,151.50017 257.760384,155.163554 254.07928,156.268494 C252.94211,156.794797 249.62486,158.732144 247.171129,160.164912 C241.229876,163.633771 234.49605,167.563762 230.135888,169.060714 C229.300747,169.34707 228.448377,169.483336 227.610196,169.483336 Z M253.333329,156.453144 C253.330288,156.453144 253.327248,156.454132 253.324207,156.455119 C253.327248,156.454132 253.330288,156.453144 253.333329,156.453144 Z" id="Shape"></path>
                </g>
            </g>
        </g>
    </g>
</svg>