<?xml version="1.0" encoding="UTF-8"?>
<svg width="600px" height="600px" viewBox="0 0 600 600" version="1.1" xmlns="http://www.w3.org/2000/svg" xmlns:xlink="http://www.w3.org/1999/xlink">
    <!-- Generator: Sketch 50.2 (55047) - http://www.bohemiancoding.com/sketch -->
    <title>knallis</title>
    <desc>Created with Sketch.</desc>
    <defs></defs>
    <g id="knallis" stroke="none" stroke-width="1" fill="none" fill-rule="evenodd">
        <g id="Baby" transform="translate(303.000000, 307.500000) rotate(-45.000000) translate(-303.000000, -307.500000) translate(70.000000, 87.000000)">
            <g id="Head" transform="translate(169.414785, 0.395976)">
                <path d="M239.968401,53.0414715 C238.2225,53.0414715 236.47569,52.4306925 235.143746,51.2091344 C232.47895,48.7643496 232.47895,44.80263 235.143746,42.3586796 L247.171267,31.3279439 C256.18008,23.0657393 267.409708,16.9754715 279.644662,13.7163147 C283.264745,12.7500823 287.049502,14.6616871 288.100318,17.9800862 C289.151134,21.3001541 287.069518,24.7712479 283.450344,25.7349771 C273.417099,28.4075525 264.209041,33.4005874 256.820577,40.1775644 L244.793057,51.2091344 C243.461113,52.4298581 241.714303,53.0414715 239.968401,53.0414715 Z" id="Hair" fill="#495059" fill-rule="nonzero"></path>
                <g id="Ears" transform="translate(22.585215, 4.604024)" fill-rule="nonzero">
                    <ellipse id="Oval" fill="#F5D7B7" cx="48.7089968" cy="44.6678832" rx="47.9333933" ry="44.2625377"></ellipse>
                    <ellipse id="Oval" fill="#000000" opacity="0.1" cx="48.7089968" cy="44.6678832" rx="47.9333933" ry="44.2625377"></ellipse>
                    <ellipse id="Oval" fill="#F5D7B7" cx="221.896176" cy="215.261848" rx="47.9333933" ry="44.2625377"></ellipse>
                    <ellipse id="Oval" fill="#000000" opacity="0.1" cx="221.896176" cy="215.261848" rx="47.9333933" ry="44.2625377"></ellipse>
                </g>
                <ellipse id="Oval" fill="#F5D7B7" fill-rule="nonzero" cx="158.585215" cy="135.604024" rx="137" ry="135"></ellipse>
                <g id="Face" transform="translate(125.585215, 143.604024) rotate(3.000000) translate(-125.585215, -143.604024) translate(7.585215, 9.604024)" fill-rule="nonzero">
                    <path d="M157.30978,148 C150.085596,148 143.133379,145.380117 137.995251,140.671118 C132.413592,135.554661 129.523334,128.474185 130.064343,121.243594 C130.341184,117.550559 133.836788,114.759115 137.85878,115.016456 C141.886621,115.269331 144.927972,118.468233 144.652105,122.161268 C144.400609,125.525476 145.742898,128.817308 148.333895,131.192359 C150.926842,133.569197 154.516026,134.793358 158.187092,134.568184 C162.212983,134.327819 165.705663,137.102287 165.982504,140.794428 C166.259345,144.487462 163.217994,147.686365 159.190153,147.940132 C158.561413,147.980342 157.934621,148 157.30978,148 Z" id="Shape" fill="#495059"></path>
                    <ellipse id="Oval" fill="#F28B74" transform="translate(85.500000, 83.500000) rotate(-45.000000) translate(-85.500000, -83.500000) " cx="85.5" cy="83.5" rx="23.5" ry="27.5"></ellipse>
                    <ellipse id="Oval" fill="#F28B74" transform="translate(199.500000, 189.500000) rotate(135.000000) translate(-199.500000, -189.500000) " cx="199.5" cy="189.5" rx="23.5" ry="27.5"></ellipse>
                    <path d="M126.198718,94 C124.274945,94 122.350169,93.3395654 120.882527,92.0186963 C117.946242,89.3751535 117.946242,85.0913511 120.882527,82.4487106 C122.223855,81.2415228 122.962689,79.6364502 122.962689,77.9285231 C122.962689,76.2196937 122.223855,74.6146212 120.882527,73.4074334 C119.540197,72.1984411 117.756771,71.5343976 115.859063,71.5343976 C113.961354,71.5343976 112.177929,72.1984411 110.835598,73.4065312 C107.899313,76.0500739 103.139502,76.0491717 100.202214,73.4074334 C97.2659286,70.7647929 97.2659286,66.4800882 100.202214,63.8374477 C104.384592,60.0724293 109.945389,58 115.859063,58 C121.773739,58 127.334536,60.0724293 131.515911,63.8374477 C135.697286,67.6006616 138,72.6053482 138,77.9276209 C138,83.2489913 135.697286,88.2536779 131.514909,92.017794 C130.047267,93.3395654 128.123494,94 126.198718,94 Z" id="Shape" fill="#495059"></path>
                    <path d="M217.198718,178 C215.274945,178 213.350169,177.339387 211.882527,176.018162 C208.946242,173.373907 208.946242,169.08895 211.882527,166.445598 C213.223855,165.238084 213.962689,163.631677 213.962689,161.92329 C213.962689,160.214902 213.223855,158.608495 211.882527,157.400981 C209.111652,154.905635 204.605471,154.905635 201.835598,157.400981 C198.899313,160.043432 194.1385,160.043432 191.202214,157.400981 C188.265929,154.756726 188.265929,150.471769 191.202214,147.828417 C199.834633,140.057194 213.881487,140.057194 222.514909,147.828417 C226.696284,151.593547 229,156.599583 229,161.92329 C229,167.246996 226.697286,172.253032 222.514909,176.018162 C221.047267,177.338485 219.122491,178 217.198718,178 Z" id="Shape" fill="#495059"></path>
                </g>
            </g>
            <g id="Wrapping" transform="translate(0.000000, 79.000000)">
                <ellipse id="Oval" fill="#9BB872" fill-rule="nonzero" cx="91.1776503" cy="276.339761" rx="91.1776503" ry="85.4006609"></ellipse>
                <path d="M155.628507,336.787849 C191.264232,303.423026 191.264232,249.327539 155.628507,215.962717 C119.992782,182.597894 62.2154049,182.597894 26.5796799,215.962717 C12.4825195,229.160679 3.98571284,245.606258 1.04203029,262.726192 C8.46981058,267.672026 18.8494478,272.465641 32.914819,277.559443 C44.795816,281.861536 59.3125943,286.328604 75.7403592,290.759956 C80.4733212,306.140854 85.2444303,319.732544 89.8393362,330.856419 C95.2798356,344.025468 100.399718,353.744509 105.681271,360.69895 C123.967344,357.941154 141.532255,349.985811 155.628507,336.787849 Z" id="Shape" fill="#000000" fill-rule="nonzero" opacity="0.1"></path>
                <path d="M117.6394,114.916328 C173.400926,115.538118 299.424558,127.888493 371.978383,163.119925 C383.300566,168.61791 388.420558,181.073185 383.932608,192.196897 C372.553132,220.400823 342.522518,262.073501 315.034621,287.14394 C301.137891,299.819168 282.062058,306.424533 262.630645,305.396675 C185.949907,301.341075 16.7619287,265.111394 4.43575399,241.632232 C-8.08412549,217.78338 31.2470482,156.418965 78.2609372,126.018044 C89.7941043,118.559938 103.594436,114.759822 117.6394,114.916328 Z" id="Shape" fill="#CCF296" fill-rule="nonzero"></path>
                <path d="M117.6394,114.916328 C173.400926,115.538118 299.424558,127.888493 371.978383,163.119925 C383.300566,168.61791 388.420558,181.073185 383.932608,192.196897 C372.553132,220.400823 342.522518,262.073501 315.034621,287.14394 C301.137891,299.819168 282.062058,306.424533 262.630645,305.396675 C185.949907,301.341075 16.7619287,265.111394 4.43575399,241.632232 C-8.08412549,217.78338 31.2470482,156.418965 78.2609372,126.018044 C89.7941043,118.559938 103.594436,114.759822 117.6394,114.916328 Z" id="Shape" fill="#000000" fill-rule="nonzero" opacity="0.1"></path>
                <path d="M78.6971255,126.028984 C66.6468852,133.82696 55.1050286,143.663755 44.8073024,154.37941 C49.5646464,187.013218 57.7542625,226.268956 67.7236764,263.168368 C68.4039466,265.687258 69.088764,268.165507 69.7763098,270.620896 C128.80157,287.450469 213.474289,302.785641 262.104511,305.500962 C264.190795,303.005779 266.195227,300.482656 268.09871,297.934132 C278.344598,284.210202 283.644884,267.972463 283.425707,250.977787 C283.135591,228.393291 279.927954,181.801868 270.497845,131.696698 C212.270174,120.044609 152.099004,115.295549 118.07913,114.916233 C104.031733,114.76129 90.230797,118.564602 78.6971255,126.028984 Z" id="Shape" fill="#000000" fill-rule="nonzero" opacity="0.1"></path>
                <path d="M265.71272,250.654614 C265.043913,198.557704 251.740656,80.8162741 213.793573,13.0306459 C207.871802,2.45254996 194.45647,-2.33095848 182.475339,1.86204581 C152.097444,12.4936694 107.212621,40.5506882 80.2097444,66.2320961 C66.5575054,79.2155406 59.4429968,97.0377205 60.5500828,115.192112 C64.9182891,186.833435 103.940567,344.902475 129.229511,356.41858 C154.916641,368.11651 221.011957,331.370159 253.756191,287.445996 C261.78826,276.669933 265.881289,263.776551 265.71272,250.654614 Z" id="Shape" fill="#CFF599" fill-rule="nonzero"></path>
                <g id="Fabric" opacity="0.1" transform="translate(93.782726, 58.672223)" fill="#000000" fill-rule="nonzero">
                    <path d="M10.313104,140.969433 C7.12006271,140.970279 4.26529048,138.885996 3.61519383,135.871606 C3.03256865,133.173452 0.311827564,116.659839 0.311827564,113.459429 C0.311827564,109.95631 3.37357306,107.117795 7.15015134,107.117795 C10.9148765,107.117795 13.968416,109.938554 13.9884751,113.425606 C14.062329,115.520037 16.3381232,130.197113 17.0256026,133.383149 C17.7668769,136.816932 15.3661694,140.15855 11.6625333,140.845983 C11.2093803,140.928847 10.7571392,140.969433 10.313104,140.969433 Z M13.9884751,113.459429 L13.9975929,113.459429 L13.9884751,113.459429 Z" id="Shape"></path>
                    <path d="M84.7405082,25.7335021 C84.0202048,25.7335021 83.2880482,25.6278082 82.566833,25.4045827 C78.9835514,24.2969108 77.0542323,20.6880987 78.2477477,17.3650829 C78.748313,15.9724602 80.1059482,13.3233486 83.1603995,7.52455922 C84.0047046,5.92139434 84.802509,4.40616677 85.0924539,3.8125899 C86.6497682,0.621480057 90.7007912,-0.794818032 94.1418357,0.650228794 C97.5819685,2.09527562 99.1091941,5.85205915 97.5518798,9.04316899 C97.1789633,9.80670163 96.4158063,11.2559762 95.4493232,13.0916676 C94.1117471,15.6308576 91.6216855,20.3583338 91.2104743,21.4101994 C90.2558443,24.0643842 87.5980158,25.7335021 84.7405082,25.7335021 Z" id="Shape"></path>
                    <path d="M116.555126,149.288811 C115.388964,149.288811 114.208213,149.012316 113.127758,148.430576 C109.784273,146.629553 100.443123,141.67716 97.4160251,140.396995 C93.9795395,138.944339 92.4632552,135.184173 94.0296872,131.996445 C95.5961192,128.808718 99.6507894,127.401721 103.088187,128.856068 C107.273241,130.624961 118.706006,136.766199 119.99617,137.461242 C123.262154,139.219988 124.372697,143.101068 122.476202,146.129832 C121.206098,148.157463 118.912068,149.288811 116.555126,149.288811 Z" id="Shape"></path>
                    <path d="M69.699843,255.631236 C65.9232647,255.631236 62.8615192,252.792721 62.8615192,249.289602 C62.8615192,245.79494 61.8777124,232.618717 61.4045004,226.286385 C61.2531455,224.25368 61.1382616,222.718159 61.0944964,222.047637 C60.8692876,218.551283 63.7422953,215.54704 67.5124912,215.339035 C71.2918048,215.108199 74.5213171,217.794515 74.7474377,221.290023 C74.7893794,221.941943 74.9006162,223.433495 75.048324,225.410394 C75.7695392,235.060669 76.5381668,245.660497 76.5381668,249.289602 C76.5381668,252.792721 73.4764213,255.631236 69.699843,255.631236 Z" id="Shape"></path>
                    <path d="M204.761296,145.13039 C201.941172,145.13039 199.301579,143.500168 198.311389,140.893334 C197.056785,137.590611 198.92775,133.969116 202.489149,132.805638 C205.109595,131.94994 211.258616,128.532222 215.327874,126.271219 C221.279951,122.963423 223.255771,121.89972 225.209708,121.536978 C228.911521,120.852927 232.516685,123.076727 233.257047,126.511355 C233.951821,129.731214 231.884824,132.868208 228.573252,133.81438 C227.550238,134.265059 224.565994,135.92403 222.358583,137.150925 C217.013749,140.121346 210.955906,143.486639 207.033443,144.768495 C206.28214,145.013704 205.515336,145.13039 204.761296,145.13039 Z M227.902184,133.972498 C227.899449,133.972498 227.896713,133.973344 227.893978,133.974189 C227.896713,133.973344 227.899449,133.972498 227.902184,133.972498 Z" id="Shape"></path>
                </g>
            </g>
        </g>
    </g>
</svg>